<?xml version="1.0" encoding="UTF-8" standalone="no"?>
<!-- Created with Inkscape (http://www.inkscape.org/) -->

<svg
   xmlns:dc="http://purl.org/dc/elements/1.1/"
   xmlns:cc="http://creativecommons.org/ns#"
   xmlns:rdf="http://www.w3.org/1999/02/22-rdf-syntax-ns#"
   xmlns:svg="http://www.w3.org/2000/svg"
   xmlns="http://www.w3.org/2000/svg"
   xmlns:xlink="http://www.w3.org/1999/xlink"
   xmlns:sodipodi="http://sodipodi.sourceforge.net/DTD/sodipodi-0.dtd"
   xmlns:inkscape="http://www.inkscape.org/namespaces/inkscape"
   width="400"
   height="400"
   id="svg4888"
   version="1.1"
   inkscape:version="0.48.0 r9654"
   sodipodi:docname="square_unchecked.svg">
  <defs
     id="defs4890">
    <linearGradient
       id="linearGradient15338">
      <stop
         id="stop15340"
         offset="0"
         style="stop-color:#ececec;stop-opacity:1" />
      <stop
         style="stop-color:#e2e2e2;stop-opacity:0.90816325;"
         offset="0.3888889"
         id="stop15342" />
      <stop
         id="stop15344"
         offset="1"
         style="stop-color:#b3b3b3;stop-opacity:1" />
    </linearGradient>
    <linearGradient
       id="linearGradient5942">
      <stop
         style="stop-color:#000000;stop-opacity:1;"
         offset="0"
         id="stop5944" />
      <stop
         id="stop5950"
         offset="0.3888889"
         style="stop-color:#e2e2e2;stop-opacity:0.90816325;" />
      <stop
         style="stop-color:#000000;stop-opacity:1;"
         offset="1"
         id="stop5946" />
    </linearGradient>
    <linearGradient
       id="linearGradient4929">
      <stop
         style="stop-color:#0b0b0b;stop-opacity:1;"
         offset="0"
         id="stop4931" />
      <stop
         style="stop-color:#878787;stop-opacity:1;"
         offset="1"
         id="stop4933" />
    </linearGradient>
    <linearGradient
       id="linearGradient4700">
      <stop
         style="stop-color:#0b0b0b;stop-opacity:1;"
         offset="0"
         id="stop4702" />
      <stop
         style="stop-color:#878787;stop-opacity:1;"
         offset="1"
         id="stop4704" />
    </linearGradient>
    <linearGradient
       id="linearGradient7111">
      <stop
         style="stop-color:#ffffff;stop-opacity:0.40816328;"
         offset="0"
         id="stop7113" />
      <stop
         style="stop-color:#ffffff;stop-opacity:0;"
         offset="1"
         id="stop7115" />
    </linearGradient>
    <linearGradient
       id="linearGradient4750">
      <stop
         style="stop-color:#ffffff;stop-opacity:0.40816328;"
         offset="0"
         id="stop4752" />
      <stop
         style="stop-color:#ffffff;stop-opacity:0;"
         offset="1"
         id="stop4754" />
    </linearGradient>
    <linearGradient
       id="linearGradient4783">
      <stop
         style="stop-color:#ffffff;stop-opacity:0.40816328;"
         offset="0"
         id="stop4785" />
      <stop
         style="stop-color:#ffffff;stop-opacity:0;"
         offset="1"
         id="stop4787" />
    </linearGradient>
    <linearGradient
       id="linearGradient4816">
      <stop
         style="stop-color:#ffffff;stop-opacity:0.40816328;"
         offset="0"
         id="stop4818" />
      <stop
         style="stop-color:#ffffff;stop-opacity:0;"
         offset="1"
         id="stop4820" />
    </linearGradient>
    <linearGradient
       id="linearGradient5942-1">
      <stop
         style="stop-color:#000000;stop-opacity:1;"
         offset="0"
         id="stop5944-7" />
      <stop
         id="stop5950-4"
         offset="0.3888889"
         style="stop-color:#e2e2e2;stop-opacity:0.90816325;" />
      <stop
         style="stop-color:#000000;stop-opacity:1;"
         offset="1"
         id="stop5946-0" />
    </linearGradient>
    <linearGradient
       id="linearGradient4929-9">
      <stop
         style="stop-color:#0b0b0b;stop-opacity:1;"
         offset="0"
         id="stop4931-4" />
      <stop
         style="stop-color:#878787;stop-opacity:1;"
         offset="1"
         id="stop4933-8" />
    </linearGradient>
    <linearGradient
       id="linearGradient7111-1">
      <stop
         style="stop-color:#ffffff;stop-opacity:0.40816328;"
         offset="0"
         id="stop7113-5" />
      <stop
         style="stop-color:#ffffff;stop-opacity:0;"
         offset="1"
         id="stop7115-2" />
    </linearGradient>
    <linearGradient
       id="linearGradient5497">
      <stop
         style="stop-color:#ffffff;stop-opacity:0.40816328;"
         offset="0"
         id="stop5499" />
      <stop
         style="stop-color:#ffffff;stop-opacity:0;"
         offset="1"
         id="stop5501" />
    </linearGradient>
    <linearGradient
       id="linearGradient5530">
      <stop
         style="stop-color:#ffffff;stop-opacity:0.40816328;"
         offset="0"
         id="stop5532" />
      <stop
         style="stop-color:#ffffff;stop-opacity:0;"
         offset="1"
         id="stop5534" />
    </linearGradient>
    <linearGradient
       id="linearGradient5563">
      <stop
         style="stop-color:#ffffff;stop-opacity:0.40816328;"
         offset="0"
         id="stop5565" />
      <stop
         style="stop-color:#ffffff;stop-opacity:0;"
         offset="1"
         id="stop5567" />
    </linearGradient>
    <linearGradient
       id="linearGradient10523">
      <stop
         style="stop-color:#1b1717;stop-opacity:0.20408164;"
         offset="0"
         id="stop10525" />
      <stop
         id="stop10533"
         offset="0.5"
         style="stop-color:#e6e6e6;stop-opacity:0.72448981;" />
      <stop
         style="stop-color:#e6e6e6;stop-opacity:0;"
         offset="1"
         id="stop10527" />
    </linearGradient>
    <linearGradient
       id="linearGradient3528">
      <stop
         id="stop3530"
         offset="0"
         style="stop-color:#333333;stop-opacity:1" />
      <stop
         id="stop3532"
         offset="1"
         style="stop-color:#808080;stop-opacity:1" />
    </linearGradient>
    <linearGradient
       id="linearGradient5958">
      <stop
         id="stop5960"
         offset="0"
         style="stop-color:#333333;stop-opacity:1" />
      <stop
         id="stop5962"
         offset="1"
         style="stop-color:#808080;stop-opacity:1" />
    </linearGradient>
    <linearGradient
       id="linearGradient5969">
      <stop
         id="stop5971"
         offset="0"
         style="stop-color:#333333;stop-opacity:1" />
      <stop
         id="stop5973"
         offset="1"
         style="stop-color:#808080;stop-opacity:1" />
    </linearGradient>
    <linearGradient
       id="linearGradient3274">
      <stop
         style="stop-color:#2d2929;stop-opacity:1;"
         offset="0"
         id="stop3276" />
      <stop
         style="stop-color:#595959;stop-opacity:1;"
         offset="1"
         id="stop3278" />
    </linearGradient>
    <linearGradient
       inkscape:collect="always"
       xlink:href="#linearGradient13578"
       id="linearGradient13584"
       x1="-10.606602"
       y1="-694.19159"
       x2="-9.1923885"
       y2="-650.35095"
       gradientUnits="userSpaceOnUse"
       gradientTransform="translate(-10,-35)" />
    <linearGradient
       id="linearGradient13578">
      <stop
         style="stop-color:#000000;stop-opacity:0;"
         offset="0"
         id="stop13580" />
      <stop
         id="stop13586"
         offset="0.5"
         style="stop-color:#000000;stop-opacity:0.36082473;" />
      <stop
         style="stop-color:#000000;stop-opacity:0;"
         offset="1"
         id="stop13582" />
    </linearGradient>
    <linearGradient
       id="linearGradient6199">
      <stop
         style="stop-color:#000000;stop-opacity:1"
         offset="0"
         id="stop6201" />
      <stop
         style="stop-color:#999999;stop-opacity:1"
         offset="1"
         id="stop6203" />
    </linearGradient>
    <linearGradient
       id="linearGradient7111-3">
      <stop
         style="stop-color:#ffffff;stop-opacity:0.40816328;"
         offset="0"
         id="stop7113-2" />
      <stop
         style="stop-color:#ffffff;stop-opacity:0;"
         offset="1"
         id="stop7115-21" />
    </linearGradient>
    <filter
       color-interpolation-filters="sRGB"
       inkscape:collect="always"
       id="filter22815">
      <feGaussianBlur
         inkscape:collect="always"
         stdDeviation="0.3609544"
         id="feGaussianBlur22817" />
    </filter>
    <linearGradient
       id="linearGradient7256">
      <stop
         style="stop-color:#112b00;stop-opacity:1"
         offset="0"
         id="stop7258" />
      <stop
         style="stop-color:#66ff00;stop-opacity:1"
         offset="1"
         id="stop7260" />
    </linearGradient>
    <linearGradient
       id="linearGradient7111-18">
      <stop
         id="stop7113-9"
         offset="0"
         style="stop-color:#ffffff;stop-opacity:0.40816328;" />
      <stop
         id="stop7115-27"
         offset="1"
         style="stop-color:#ffffff;stop-opacity:0;" />
    </linearGradient>
    <linearGradient
       id="linearGradient7228">
      <stop
         id="stop7230"
         offset="0"
         style="stop-color:#dbb10e;stop-opacity:1;" />
      <stop
         id="stop7232"
         offset="1"
         style="stop-color:#f5ff00;stop-opacity:1;" />
    </linearGradient>
    <linearGradient
       id="linearGradient7111-4">
      <stop
         id="stop7113-1"
         offset="0"
         style="stop-color:#ffffff;stop-opacity:0.40816328;" />
      <stop
         id="stop7115-1"
         offset="1"
         style="stop-color:#ffffff;stop-opacity:0;" />
    </linearGradient>
    <filter
       color-interpolation-filters="sRGB"
       id="filter12440"
       height="1.0811868"
       y="-0.040593408"
       width="1.229917"
       x="-0.11495851"
       inkscape:collect="always">
      <feGaussianBlur
         id="feGaussianBlur12442"
         stdDeviation="0.89766595"
         inkscape:collect="always" />
    </filter>
    <linearGradient
       id="linearGradient7199">
      <stop
         style="stop-color:#550000;stop-opacity:1"
         offset="0"
         id="stop7201" />
      <stop
         style="stop-color:#ff0000;stop-opacity:1"
         offset="1"
         id="stop7203" />
    </linearGradient>
    <linearGradient
       id="linearGradient7111-42">
      <stop
         id="stop7113-7"
         offset="0"
         style="stop-color:#ffffff;stop-opacity:0.40816328;" />
      <stop
         id="stop7115-7"
         offset="1"
         style="stop-color:#ffffff;stop-opacity:0;" />
    </linearGradient>
    <linearGradient
       id="linearGradient7171">
      <stop
         id="stop7173"
         offset="0"
         style="stop-color:#00112b;stop-opacity:1" />
      <stop
         id="stop7175"
         offset="1"
         style="stop-color:#0055d4;stop-opacity:1" />
    </linearGradient>
    <linearGradient
       id="linearGradient7111-6">
      <stop
         id="stop7113-50"
         offset="0"
         style="stop-color:#ffffff;stop-opacity:0.40816328;" />
      <stop
         id="stop7115-28"
         offset="1"
         style="stop-color:#ffffff;stop-opacity:0;" />
    </linearGradient>
    <filter
       color-interpolation-filters="sRGB"
       id="filter10443"
       inkscape:collect="always">
      <feGaussianBlur
         id="feGaussianBlur10445"
         stdDeviation="1.3973845"
         inkscape:collect="always" />
    </filter>
    <filter
       color-interpolation-filters="sRGB"
       id="filter12440-4"
       height="1.0811868"
       y="-0.040593408"
       width="1.229917"
       x="-0.11495851"
       inkscape:collect="always">
      <feGaussianBlur
         id="feGaussianBlur12442-8"
         stdDeviation="0.89766595"
         inkscape:collect="always" />
    </filter>
    <linearGradient
       y2="338.81863"
       x2="300.26785"
       y1="286.66653"
       x1="255.31609"
       gradientTransform="matrix(2.7753886,0,0,2.7753886,-609.28258,-63.584564)"
       gradientUnits="userSpaceOnUse"
       id="linearGradient13463-6"
       xlink:href="#linearGradient4148-5"
       inkscape:collect="always" />
    <linearGradient
       id="linearGradient4148-5"
       inkscape:collect="always">
      <stop
         id="stop4150-09"
         offset="0"
         style="stop-color:#ffffff;stop-opacity:1;" />
      <stop
         id="stop4152-0"
         offset="1"
         style="stop-color:#ffffff;stop-opacity:0;" />
    </linearGradient>
    <radialGradient
       r="53.035713"
       fy="386.57211"
       fx="312.78131"
       cy="386.57211"
       cx="312.78131"
       gradientTransform="matrix(-0.5932658,-0.5932658,0.7150464,-0.7150486,243.27022,849.03358)"
       gradientUnits="userSpaceOnUse"
       id="radialGradient8431-0"
       xlink:href="#linearGradient7111-61"
       inkscape:collect="always" />
    <linearGradient
       id="linearGradient7111-61">
      <stop
         id="stop7113-3"
         offset="0"
         style="stop-color:#ffffff;stop-opacity:0.40816328;" />
      <stop
         id="stop7115-8"
         offset="1"
         style="stop-color:#ffffff;stop-opacity:0;" />
    </linearGradient>
    <linearGradient
       y2="391.44925"
       x2="341.99622"
       y1="300.86383"
       x1="275.60828"
       gradientUnits="userSpaceOnUse"
       id="linearGradient8429-9"
       xlink:href="#linearGradient7228-3"
       inkscape:collect="always" />
    <linearGradient
       id="linearGradient7228-3">
      <stop
         id="stop7230-4"
         offset="0"
         style="stop-color:#dbb10e;stop-opacity:1;" />
      <stop
         id="stop7232-4"
         offset="1"
         style="stop-color:#f5ff00;stop-opacity:1;" />
    </linearGradient>
    <filter
       color-interpolation-filters="sRGB"
       id="filter6126-6"
       inkscape:collect="always">
      <feGaussianBlur
         id="feGaussianBlur6128-0"
         stdDeviation="0.53035713"
         inkscape:collect="always" />
    </filter>
    <linearGradient
       y2="367.88477"
       x2="315.47369"
       y1="287.49377"
       x1="241.40979"
       gradientUnits="userSpaceOnUse"
       id="linearGradient8427-6"
       xlink:href="#linearGradient4156-61"
       inkscape:collect="always" />
    <linearGradient
       id="linearGradient4156-61"
       inkscape:collect="always">
      <stop
         id="stop4158-84"
         offset="0"
         style="stop-color:#ffffff;stop-opacity:1;" />
      <stop
         id="stop4160-9"
         offset="1"
         style="stop-color:#ffffff;stop-opacity:0;" />
    </linearGradient>
    <filter
       color-interpolation-filters="sRGB"
       id="filter6126"
       inkscape:collect="always">
      <feGaussianBlur
         id="feGaussianBlur6128"
         stdDeviation="0.53035713"
         inkscape:collect="always" />
    </filter>
    <linearGradient
       y2="391.44925"
       x2="341.99622"
       y1="300.86383"
       x1="275.60828"
       gradientUnits="userSpaceOnUse"
       id="linearGradient3654"
       xlink:href="#linearGradient7256-6"
       inkscape:collect="always" />
    <linearGradient
       id="linearGradient7256-6">
      <stop
         style="stop-color:#112b00;stop-opacity:1"
         offset="0"
         id="stop7258-3" />
      <stop
         style="stop-color:#66ff00;stop-opacity:1"
         offset="1"
         id="stop7260-7" />
    </linearGradient>
    <radialGradient
       r="53.035713"
       fy="386.57211"
       fx="312.78131"
       cy="386.57211"
       cx="312.78131"
       gradientTransform="matrix(-0.5932658,-0.5932658,0.7150464,-0.7150486,243.27022,849.03358)"
       gradientUnits="userSpaceOnUse"
       id="radialGradient3656"
       xlink:href="#linearGradient7111-8"
       inkscape:collect="always" />
    <linearGradient
       id="linearGradient7111-8">
      <stop
         id="stop7113-8"
         offset="0"
         style="stop-color:#ffffff;stop-opacity:0.40816328;" />
      <stop
         id="stop7115-29"
         offset="1"
         style="stop-color:#ffffff;stop-opacity:0;" />
    </linearGradient>
    <linearGradient
       y2="338.81863"
       x2="300.26785"
       y1="286.66653"
       x1="255.31609"
       gradientTransform="matrix(0.2873792,0,0,0.2873792,-571.76438,-2.3895393)"
       gradientUnits="userSpaceOnUse"
       id="linearGradient3659"
       xlink:href="#linearGradient4148"
       inkscape:collect="always" />
    <linearGradient
       id="linearGradient4148"
       inkscape:collect="always">
      <stop
         id="stop4150"
         offset="0"
         style="stop-color:#ffffff;stop-opacity:1;" />
      <stop
         id="stop4152"
         offset="1"
         style="stop-color:#ffffff;stop-opacity:0;" />
    </linearGradient>
    <filter
       color-interpolation-filters="sRGB"
       id="filter5621"
       inkscape:collect="always">
      <feGaussianBlur
         id="feGaussianBlur5623"
         stdDeviation="0.28167629"
         inkscape:collect="always" />
    </filter>
    <linearGradient
       y2="367.88477"
       x2="315.47369"
       y1="287.49377"
       x1="241.40979"
       gradientUnits="userSpaceOnUse"
       id="linearGradient3652"
       xlink:href="#linearGradient4156"
       inkscape:collect="always" />
    <linearGradient
       id="linearGradient4156"
       inkscape:collect="always">
      <stop
         id="stop4158"
         offset="0"
         style="stop-color:#ffffff;stop-opacity:1;" />
      <stop
         id="stop4160"
         offset="1"
         style="stop-color:#ffffff;stop-opacity:0;" />
    </linearGradient>
    <linearGradient
       y2="367.88477"
       x2="315.47369"
       y1="287.49377"
       x1="241.40979"
       gradientUnits="userSpaceOnUse"
       id="linearGradient6947"
       xlink:href="#linearGradient4156"
       inkscape:collect="always" />
    <linearGradient
       y2="367.88477"
       x2="315.47369"
       y1="287.49377"
       x1="241.40979"
       gradientUnits="userSpaceOnUse"
       id="linearGradient3628"
       xlink:href="#linearGradient4156-1"
       inkscape:collect="always" />
    <linearGradient
       id="linearGradient4156-1"
       inkscape:collect="always">
      <stop
         id="stop4158-3"
         offset="0"
         style="stop-color:#ffffff;stop-opacity:1;" />
      <stop
         id="stop4160-5"
         offset="1"
         style="stop-color:#ffffff;stop-opacity:0;" />
    </linearGradient>
    <filter
       color-interpolation-filters="sRGB"
       id="filter6126-9"
       inkscape:collect="always">
      <feGaussianBlur
         id="feGaussianBlur6128-8"
         stdDeviation="0.53035713"
         inkscape:collect="always" />
    </filter>
    <linearGradient
       y2="391.44925"
       x2="341.99622"
       y1="300.86383"
       x1="275.60828"
       gradientUnits="userSpaceOnUse"
       id="linearGradient3630"
       xlink:href="#linearGradient7256-4"
       inkscape:collect="always" />
    <linearGradient
       id="linearGradient7256-4">
      <stop
         style="stop-color:#112b00;stop-opacity:1"
         offset="0"
         id="stop7258-0" />
      <stop
         style="stop-color:#66ff00;stop-opacity:1"
         offset="1"
         id="stop7260-76" />
    </linearGradient>
    <radialGradient
       r="53.035713"
       fy="386.57211"
       fx="312.78131"
       cy="386.57211"
       cx="312.78131"
       gradientTransform="matrix(-0.5932658,-0.5932658,0.7150464,-0.7150486,243.27022,849.03358)"
       gradientUnits="userSpaceOnUse"
       id="radialGradient3632"
       xlink:href="#linearGradient7111-36"
       inkscape:collect="always" />
    <linearGradient
       id="linearGradient7111-36">
      <stop
         id="stop7113-15"
         offset="0"
         style="stop-color:#ffffff;stop-opacity:0.40816328;" />
      <stop
         id="stop7115-4"
         offset="1"
         style="stop-color:#ffffff;stop-opacity:0;" />
    </linearGradient>
    <linearGradient
       y2="338.81863"
       x2="300.26785"
       y1="286.66653"
       x1="255.31609"
       gradientTransform="matrix(0.2873792,0,0,0.2873792,-617.76438,-2.3895393)"
       gradientUnits="userSpaceOnUse"
       id="linearGradient3634"
       xlink:href="#linearGradient4148-2"
       inkscape:collect="always" />
    <linearGradient
       id="linearGradient4148-2"
       inkscape:collect="always">
      <stop
         id="stop4150-0"
         offset="0"
         style="stop-color:#ffffff;stop-opacity:1;" />
      <stop
         id="stop4152-9"
         offset="1"
         style="stop-color:#ffffff;stop-opacity:0;" />
    </linearGradient>
    <filter
       color-interpolation-filters="sRGB"
       id="filter5621-7"
       inkscape:collect="always">
      <feGaussianBlur
         id="feGaussianBlur5623-3"
         stdDeviation="0.28167629"
         inkscape:collect="always" />
    </filter>
    <linearGradient
       inkscape:collect="always"
       xlink:href="#linearGradient3780"
       id="linearGradient7176"
       gradientUnits="userSpaceOnUse"
       gradientTransform="matrix(1.7259353,0,0,1.7259353,1184.5167,1688.6721)"
       x1="-953.89557"
       y1="-353.32162"
       x2="-917.46674"
       y2="-325.32162" />
    <linearGradient
       id="linearGradient3780">
      <stop
         style="stop-color:#666666;stop-opacity:1"
         offset="0"
         id="stop3782" />
      <stop
         style="stop-color:#ffffff;stop-opacity:1"
         offset="1"
         id="stop3784" />
    </linearGradient>
    <filter
       color-interpolation-filters="sRGB"
       id="filter4959"
       inkscape:collect="always">
      <feGaussianBlur
         id="feGaussianBlur4961"
         stdDeviation="0.62250006"
         inkscape:collect="always" />
    </filter>
    <linearGradient
       inkscape:collect="always"
       xlink:href="#linearGradient7256-7"
       id="linearGradient7152"
       gradientUnits="userSpaceOnUse"
       gradientTransform="translate(148.79163,-34.729185)"
       x1="-953.89557"
       y1="-353.32162"
       x2="-917.46674"
       y2="-325.32162" />
    <linearGradient
       id="linearGradient7256-7">
      <stop
         style="stop-color:#112b00;stop-opacity:1"
         offset="0"
         id="stop7258-4" />
      <stop
         style="stop-color:#66ff00;stop-opacity:1"
         offset="1"
         id="stop7260-78" />
    </linearGradient>
    <linearGradient
       inkscape:collect="always"
       xlink:href="#linearGradient4156-3"
       id="linearGradient7154"
       gradientUnits="userSpaceOnUse"
       gradientTransform="matrix(0.9658517,0,0,0.7185885,115.94354,-138.0756)"
       x1="-948.25"
       y1="-370.65112"
       x2="-948.25"
       y2="-333.08163" />
    <linearGradient
       id="linearGradient4156-3"
       inkscape:collect="always">
      <stop
         id="stop4158-7"
         offset="0"
         style="stop-color:#ffffff;stop-opacity:1;" />
      <stop
         id="stop4160-1"
         offset="1"
         style="stop-color:#ffffff;stop-opacity:0;" />
    </linearGradient>
    <filter
       color-interpolation-filters="sRGB"
       inkscape:collect="always"
       id="filter6635">
      <feGaussianBlur
         inkscape:collect="always"
         stdDeviation="1.3118771"
         id="feGaussianBlur6637" />
    </filter>
    <linearGradient
       inkscape:collect="always"
       xlink:href="#linearGradient3780-3"
       id="linearGradient7124"
       gradientUnits="userSpaceOnUse"
       gradientTransform="matrix(1.7259353,0,0,1.7259353,1260.0167,1689.1721)"
       x1="-953.89557"
       y1="-353.32162"
       x2="-917.46674"
       y2="-325.32162" />
    <linearGradient
       id="linearGradient3780-3">
      <stop
         style="stop-color:#666666;stop-opacity:1"
         offset="0"
         id="stop3782-6" />
      <stop
         style="stop-color:#ffffff;stop-opacity:1"
         offset="1"
         id="stop3784-3" />
    </linearGradient>
    <filter
       color-interpolation-filters="sRGB"
       id="filter4959-0"
       inkscape:collect="always">
      <feGaussianBlur
         id="feGaussianBlur4961-3"
         stdDeviation="0.62250006"
         inkscape:collect="always" />
    </filter>
    <linearGradient
       inkscape:collect="always"
       xlink:href="#linearGradient7199-5"
       id="linearGradient7120"
       gradientUnits="userSpaceOnUse"
       gradientTransform="matrix(1.3728736,0,0,1.3728736,1646.4298,-630.51678)"
       x1="-953.89557"
       y1="-353.32162"
       x2="-917.46674"
       y2="-325.32162" />
    <linearGradient
       id="linearGradient7199-5">
      <stop
         style="stop-color:#550000;stop-opacity:1"
         offset="0"
         id="stop7201-2" />
      <stop
         style="stop-color:#ff0000;stop-opacity:1"
         offset="1"
         id="stop7203-8" />
    </linearGradient>
    <linearGradient
       inkscape:collect="always"
       xlink:href="#linearGradient4156-0"
       id="linearGradient7117"
       gradientUnits="userSpaceOnUse"
       gradientTransform="matrix(1.3259923,0,0,0.9865312,1601.3336,-772.39835)"
       x1="-948.25"
       y1="-370.65112"
       x2="-948.25"
       y2="-333.08163" />
    <linearGradient
       id="linearGradient4156-0"
       inkscape:collect="always">
      <stop
         id="stop4158-72"
         offset="0"
         style="stop-color:#ffffff;stop-opacity:1;" />
      <stop
         id="stop4160-2"
         offset="1"
         style="stop-color:#ffffff;stop-opacity:0;" />
    </linearGradient>
    <filter
       color-interpolation-filters="sRGB"
       id="filter11428"
       inkscape:collect="always">
      <feGaussianBlur
         id="feGaussianBlur11430"
         stdDeviation="1.2434678"
         inkscape:collect="always" />
    </filter>
  </defs>
  <sodipodi:namedview
     id="base"
     pagecolor="#ffffff"
     bordercolor="#666666"
     borderopacity="1.0"
     inkscape:pageopacity="0.0"
     inkscape:pageshadow="2"
     inkscape:zoom="1"
     inkscape:cx="331.57247"
     inkscape:cy="293.68333"
     inkscape:document-units="px"
     inkscape:current-layer="text11467"
     showgrid="false"
     inkscape:window-width="1680"
     inkscape:window-height="988"
     inkscape:window-x="-8"
     inkscape:window-y="-8"
     inkscape:window-maximized="1" />
  <metadata
     id="metadata4893">
    <rdf:RDF>
      <cc:Work
         rdf:about="">
        <dc:format>image/svg+xml</dc:format>
        <dc:type
           rdf:resource="http://purl.org/dc/dcmitype/StillImage" />
        <dc:title></dc:title>
      </cc:Work>
    </rdf:RDF>
  </metadata>
  <g
     inkscape:label="Layer 1"
     inkscape:groupmode="layer"
     id="layer1"
     transform="translate(0,-652.36218)">
    <g
       style="font-size:225.16009521px;font-style:normal;font-weight:normal;fill:#000000;fill-opacity:1;stroke:none;display:inline;font-family:Eras Bold ITC"
       id="text11467">
      <path
         style="fill:#000000;fill-rule:evenodd;stroke:none;visibility:visible;display:inline"
         d="m 167.04602,697.35256 -5.6109,40.60838 -5.11984,6.18944 -0.94689,0.85914 -2.29702,2.64758 -2.12143,3.05094 -1.96383,3.40151 -1.80596,3.75228 -1.5781,4.0503 -1.40273,4.34833 -1.17474,4.5939 -0.91173,4.8569 -0.7014,5.04973 -0.40323,5.26014 -0.15781,5.38285 0.15781,5.3654 0.40323,5.26014 0.7014,5.04973 0.91173,4.85683 1.17474,4.5939 1.40273,4.3484 1.5781,4.0503 1.80596,3.76979 1.96383,3.384 2.12143,3.05094 2.29702,2.64758 2.41966,2.20926 2.56002,1.78844 1.29739,0.70133 1.35012,0.59619 1.38522,0.47342 1.36763,0.33312 1.40273,0.19289 1.43775,0.0701 1.4203,-0.0701 1.40259,-0.19289 1.38521,-0.33312 1.36764,-0.47342 1.35006,-0.59619 1.3151,-0.70133 2.54237,-1.78844 2.41966,-2.20926 2.29695,-2.64758 2.12163,-3.05094 1.99886,-3.384 1.77093,-3.76979 1.59562,-4.0503 1.40259,-4.3484 1.15723,-4.5939 0.92938,-4.85683 0.68375,-5.04973 0.33319,-4.20811 -0.43839,0.0701 c 0.74118,-15.04412 -0.99969,-27.98557 -7.46933,-43.44878 l -2.82303,-4.97962 -1.26243,-1.80602 -2.29695,-2.64758 -2.41966,-2.20926 -2.54237,-1.78845 -1.3151,-0.70139 -1.01688,-0.45584 -2.20932,-4.59389 -5.24249,-37.90813 z m 67.3298,3.06839 -8.46889,42.95793 -1.29745,0.70132 -2.55996,1.78845 -2.41966,2.20926 -2.29681,2.64764 -1.24492,1.80596 -2.84054,4.97962 c -4.87653,13.95257 -7.84402,28.32933 -7.46953,43.44885 l -0.43832,-0.0702 0.33319,4.20811 0.68388,5.04979 0.92925,4.85684 1.17474,4.59389 1.40272,4.34834 1.57811,4.0503 1.78844,3.76979 1.98134,3.38406 2.12164,3.05088 2.29681,2.64758 2.41966,2.20926 2.55996,1.78844 1.29745,0.7014 1.35013,0.59613 1.3677,0.47341 1.38515,0.33318 1.40272,0.19283 1.42024,0.0702 1.43781,-0.0702 1.40259,-0.19283 1.38522,-0.33318 1.36763,-0.47341 1.35006,-0.59613 1.29759,-0.7014 2.55982,-1.78844 2.41966,-2.20926 2.29702,-2.64758 2.12163,-3.05088 1.96383,-3.38406 1.80595,-3.76979 1.57811,-4.0503 1.40259,-4.34834 1.17474,-4.59389 0.92938,-4.85684 0.68369,-5.04979 0.40336,-5.26014 0.15787,-5.38285 -0.15787,-5.3654 -0.40336,-5.26014 -0.68369,-5.04973 -0.92938,-4.85683 -1.17474,-4.5939 -1.40259,-4.3484 -1.57811,-4.0503 -1.80595,-3.75221 -1.96383,-3.40158 -2.12163,-3.05088 -2.29702,-2.64764 -0.94669,-0.85914 -5.11984,-6.18944 -5.6109,-40.60838 z m -139.919997,74.90452 -0.07005,0.0351 -0.08763,0 -0.07018,0.0175 -0.07018,0 -0.157871,0 -0.157671,0 -0.157804,0.0351 -0.140359,0.0175 -0.315542,0.0526 -0.07018,0.0176 -0.105137,0.0526 -0.15787,0.0526 -0.140358,0.035 -0.157672,0.0526 -0.157804,0.0701 -0.15787,0.0877 -0.280519,0.12278 -0.140358,0.1052 -0.14016,0.10514 -0.280519,0.15787 -0.578681,0.42081 -0.315542,0.28052 -0.280518,0.263 -0.526014,0.54353 -1.052093,1.35012 -1.016871,1.61313 -0.911933,1.84105 -0.87658,2.08654 -0.753996,2.26186 -0.718907,2.47226 -1.104563,5.45303 -0.701395,6.06667 -0.263007,6.43494 0.263007,6.45246 0.701395,6.06667 1.104563,5.45302 0.718907,2.47227 0.753996,2.26186 0.87658,2.08654 0.228049,0.4559 -0.03502,0.24543 -0.08769,3.61198 0.140227,3.76978 0.42081,3.89251 0.683752,4.06788 0.964402,4.1029 1.227409,4.20811 1.507928,4.2432 1.788446,4.22562 2.016297,4.13799 2.191811,3.91008 2.314462,3.66452 2.4722,3.40157 2.56002,3.13857 2.64751,2.84048 2.73534,2.54237 2.75284,2.24435 2.77036,1.87614 2.78788,1.52544 2.75284,1.19232 2.73514,0.78902 2.66523,0.42081 2.61249,-0.0351 1.24491,-0.15781 1.22741,-0.263 1.19226,-0.38572 1.17474,-0.49099 1.1222,-0.59613 1.0521,-0.70133 0.99942,-0.8066 0.92918,-0.89422 1.6658,-2.01636 1.42023,-2.36707 1.1573,-2.64764 0.91174,-2.94568 0.64866,-3.19117 0.36821,-3.41909 0.1052,-3.61191 -0.14023,-3.76979 -0.42081,-3.89256 -0.68388,-4.06782 -0.96427,-4.1029 -1.22741,-4.20811 -1.50793,-4.2432 -1.78844,-4.22569 -2.0163,-4.13793 -2.15679,-3.91007 -2.34954,-3.66459 -2.45462,-3.40151 -2.57754,-3.13857 -2.63,-2.84047 -2.71782,-2.54244 -2.75285,-2.20926 -2.78787,-1.91116 -2.78787,-1.52544 -2.77036,-1.19232 -2.73514,-0.78902 -2.68274,-0.42081 -2.57746,0.0351 -1.26243,0.1578 -1.227414,0.26301 -0.876712,0.28052 -0.01718,-0.0877 -1.192253,-3.29637 -1.104761,-3.45412 -0.911735,-3.61198 -0.753864,-3.76978 -0.578681,-3.80481 -0.333054,-3.73476 -0.157804,-3.61192 0,-3.52429 0.227851,-3.36655 0.420811,-3.20869 0.105203,-0.49092 0.08769,-0.49092 0.157804,-0.92932 -0.01784,0 -0.03502,-0.0351 -0.01784,0 -0.03502,0 -0.07018,0 -0.05287,0 z m 209.073457,0.0526 -0.035,0.0351 -0.0172,0 0.15787,0.92931 0.0876,0.49092 0.10521,0.49093 0.42087,3.20868 0.22785,3.36655 0,3.52429 -0.15773,3.61192 -0.33319,3.73476 -0.57868,3.80481 -0.75387,3.76978 -0.91173,3.61199 -1.10476,3.45411 -1.19225,3.29637 -0.0172,0.0877 -0.87677,-0.28052 -1.22741,-0.263 -1.26237,-0.15781 -2.57753,-0.0351 -2.68267,0.42081 -2.7352,0.78902 -2.77036,1.19232 -2.78788,1.52544 -2.7878,1.91116 -2.75285,2.20926 -2.71789,2.54244 -2.63,2.84048 -2.57747,3.13856 -2.45468,3.40151 -2.34949,3.66459 -2.15665,3.91008 -2.0165,4.13799 -1.78844,4.22562 -1.50793,4.2432 -1.22741,4.20811 -0.9642,4.1029 -0.68389,4.06782 -0.42087,3.89256 -0.14016,3.76972 0.10513,3.61199 0.36821,3.41908 0.64873,3.19117 0.91173,2.94568 1.15723,2.64765 1.42024,2.36706 1.6658,2.01636 0.92925,0.89422 0.99935,0.8066 1.0521,0.70133 1.1222,0.59613 1.17481,0.49099 1.19219,0.38572 1.22747,0.263 1.24486,0.15781 2.61255,0.0351 2.66516,-0.42081 2.73521,-0.78902 2.75284,-1.19232 2.78788,-1.52544 2.77029,-1.87614 2.75285,-2.24434 2.7354,-2.54238 2.64751,-2.84047 2.55996,-3.13857 2.4722,-3.40158 2.31446,-3.66458 2.19181,-3.91001 2.01629,-4.138 1.78852,-4.22562 1.50792,-4.2432 1.22741,-4.20811 0.9644,-4.1029 0.68369,-4.06788 0.42088,-3.8925 0.14029,-3.76979 -0.0876,-3.61198 -0.035,-0.24543 0.22798,-0.4559 0.87658,-2.08654 0.75407,-2.26186 0.71884,-2.47226 1.10456,-5.45303 0.70139,-6.06667 0.26301,-6.45246 -0.26301,-6.43494 -0.70139,-6.06667 -1.10456,-5.45302 -0.71884,-2.47227 -0.75407,-2.26192 -0.87658,-2.08648 -0.91186,-1.84105 -1.01694,-1.61313 -1.05203,-1.35012 -0.52608,-0.54352 -0.28052,-0.26301 -0.31547,-0.28052 -0.57875,-0.42081 -0.28052,-0.15781 -0.14016,-0.1052 -0.14036,-0.1052 -0.28051,-0.12278 -0.15781,-0.0876 -0.15787,-0.0702 -0.15767,-0.0526 -0.14036,-0.035 -0.1578,-0.0526 -0.10521,-0.0526 -0.0702,-0.0176 -0.31555,-0.0526 -0.14029,-0.0175 -0.15774,-0.0351 -0.1578,0 -0.15787,0 -0.0701,0 -0.0702,-0.0175 -0.0877,0 -0.07,-0.0351 -0.0529,0 -0.0702,0 -0.035,0 -0.0172,0 z m -105.71153,88.61596 -3.6821,0.21041 -3.55925,0.5611 -3.45424,0.94682 -3.31389,1.29753 -3.1385,1.61306 -2.98076,1.89365 c -9.71394,10.54954 -12.70085,21.09902 -17.51632,31.64857 l -2.06897,2.92816 -2.33197,2.70025 -2.57753,2.47226 -2.75285,2.20926 -2.9807,1.89365 -3.1385,1.61306 c -11.44126,2.87642 -18.63191,7.16965 -24.86299,11.78278 l -2.57754,2.47227 -2.33197,2.70024 -2.05152,2.94568 -2.77029,5.29523 -0.56104,1.20983 -1.20996,3.50671 -0.87671,3.66458 -0.56104,3.7873 -0.17531,3.91008 0.17531,3.8925 0.56104,3.80481 0.87671,3.66458 1.20996,3.50678 1.50793,3.3314 1.8234,3.17365 2.05152,2.92806 2.33197,2.7003 2.57754,2.4723 2.75284,2.2092 2.9807,1.9112 3.13851,1.5956 3.31388,1.315 c 6.52105,3.3298 12.16909,3.3939 19.26967,0.6138 l 0.035,-0.053 2.06896,-0.5611 3.31389,-1.315 3.1385,-1.5957 2.99821,-1.9111 c 18.0878,-11.65264 38.07023,-18.68702 69.22365,1.5079 l 2.9807,1.9112 c 9.93471,6.6294 20.39809,6.1215 31.15757,1.6131 l 3.12106,-1.6131 2.99835,-1.9112 2.75284,-2.2093 2.57734,-2.4722 2.31452,-2.7003 2.06897,-2.9282 1.80609,-3.17355 1.50779,-3.33146 1.22741,-3.50678 0.8592,-3.66452 0.56104,-3.80481 0.19289,-3.89257 -0.19289,-3.91001 -0.56104,-3.78729 -0.8592,-3.66459 -1.22741,-3.50678 -1.50779,-3.33139 -1.80609,-3.17366 -2.06897,-2.94568 -2.31452,-2.70018 -2.57734,-2.47226 -2.75284,-2.20934 -2.99835,-1.89358 -11.34425,-3.29637 -3.31388,-1.31504 -3.1387,-1.61313 -2.9807,-1.89365 -2.75285,-2.20925 -2.5774,-2.47227 -2.33197,-2.70024 -2.05145,-2.94568 -1.82361,-3.15608 -8.97732,-22.72385 -2.06896,-2.94568 -2.31446,-2.70018 -2.57753,-2.47233 -2.75285,-2.20926 -2.9807,-1.89364 -3.1385,-1.61307 -3.31389,-1.29752 -3.45424,-0.94682 -3.57689,-0.56111 -3.66459,-0.2104 z"
         id="path5127"
         inkscape:connector-curvature="0" />
    </g>
  </g>
</svg>
